# Blender v2.93.5 OBJ File: ''
# www.blender.org
mtllib Z.mtl
o hidden_geometry_Z
v -0.364878 0.296774 0.004000
v 0.400000 0.400000 0.004000
v -0.364878 0.400000 0.004000
v -0.364878 0.296774 0.004000
v 0.164553 0.296774 0.004000
v 0.400000 0.400000 0.004000
v 0.164553 0.296774 0.004000
v -0.164553 -0.296774 0.004000
v 0.400000 0.400000 0.004000
v -0.400000 -0.400000 0.004000
v -0.164553 -0.296774 0.004000
v 0.164553 0.296774 0.004000
v -0.400000 -0.400000 0.004000
v 0.400000 -0.296774 0.004000
v -0.164553 -0.296774 0.004000
v -0.400000 -0.400000 0.004000
v 0.400000 -0.400000 0.004000
v 0.400000 -0.296774 0.004000
v -0.364878 0.296774 -0.004000
v -0.364878 0.400000 -0.004000
v 0.400000 0.400000 -0.004000
v -0.364878 0.296774 -0.004000
v 0.400000 0.400000 -0.004000
v 0.164553 0.296774 -0.003999
v 0.164553 0.296774 -0.003999
v 0.400000 0.400000 -0.004000
v -0.164553 -0.296774 -0.004000
v -0.400000 -0.400000 -0.003999
v 0.164553 0.296774 -0.003999
v -0.164553 -0.296774 -0.004000
v -0.400000 -0.400000 -0.003999
v -0.164553 -0.296774 -0.004000
v 0.400000 -0.296774 -0.004000
v -0.400000 -0.400000 -0.003999
v 0.400000 -0.296774 -0.004000
v 0.400000 -0.400000 -0.004000
v 0.400000 0.400000 0.004000
v -0.164553 -0.296774 0.004000
v -0.164553 -0.296774 -0.004000
v 0.400000 0.400000 -0.004000
v -0.164553 -0.296774 0.004000
v 0.400000 -0.296774 0.004000
v 0.400000 -0.296774 -0.004000
v -0.164553 -0.296774 -0.004000
v -0.400000 -0.400000 0.004000
v 0.164553 0.296774 0.004000
v 0.164553 0.296774 -0.003999
v -0.400000 -0.400000 -0.003999
v -0.364878 0.400000 0.004000
v 0.400000 0.400000 0.004000
v 0.400000 0.400000 -0.004000
v -0.364878 0.400000 -0.004000
v -0.364878 0.296774 0.004000
v -0.364878 0.400000 0.004000
v -0.364878 0.400000 -0.004000
v -0.364878 0.296774 -0.004000
v 0.400000 -0.400000 0.004000
v -0.400000 -0.400000 0.004000
v -0.400000 -0.400000 -0.003999
v 0.400000 -0.400000 -0.004000
v 0.164553 0.296774 0.004000
v -0.364878 0.296774 0.004000
v -0.364878 0.296774 -0.004000
v 0.164553 0.296774 -0.003999
v 0.400000 -0.296774 0.004000
v 0.400000 -0.400000 0.004000
v 0.400000 -0.400000 -0.004000
v 0.400000 -0.296774 -0.004000
v -0.357368 0.303546 -0.000619
v -0.357368 0.393227 -0.000619
v 0.390323 0.395568 -0.000410
v -0.357368 0.303546 -0.000619
v 0.390323 0.395568 -0.000410
v 0.167537 0.298140 -0.003730
v 0.167537 0.298140 -0.003730
v 0.390323 0.395568 -0.000410
v -0.167536 -0.298140 -0.003731
v -0.390322 -0.395569 -0.000410
v 0.167537 0.298140 -0.003730
v -0.167536 -0.298140 -0.003731
v -0.390322 -0.395569 -0.000410
v -0.167536 -0.298140 -0.003731
v 0.392490 -0.303546 -0.000619
v -0.390322 -0.395569 -0.000410
v 0.392490 -0.303546 -0.000619
v 0.392490 -0.393228 -0.000619
v -0.357368 0.303546 0.000618
v 0.390323 0.395568 0.000410
v -0.357368 0.393227 0.000618
v -0.357368 0.303546 0.000618
v 0.167537 0.298141 0.003731
v 0.390323 0.395568 0.000410
v 0.167537 0.298141 0.003731
v -0.167536 -0.298140 0.003730
v 0.390323 0.395568 0.000410
v -0.390322 -0.395569 0.000410
v -0.167536 -0.298140 0.003730
v 0.167537 0.298141 0.003731
v -0.390322 -0.395569 0.000410
v 0.392490 -0.303546 0.000618
v -0.167536 -0.298140 0.003730
v -0.390322 -0.395569 0.000410
v 0.392490 -0.393228 0.000618
v 0.392490 -0.303546 0.000618
v 0.390323 0.395568 -0.000410
v 0.390323 0.395568 0.000410
v -0.167536 -0.298140 0.003730
v -0.167536 -0.298140 -0.003731
v -0.167536 -0.298140 -0.003731
v -0.167536 -0.298140 0.003730
v 0.392490 -0.303546 0.000618
v 0.392490 -0.303546 -0.000619
v -0.390322 -0.395569 -0.000410
v -0.390322 -0.395569 0.000410
v 0.167537 0.298141 0.003731
v 0.167537 0.298140 -0.003730
v -0.357368 0.393227 -0.000619
v -0.357368 0.393227 0.000618
v 0.390323 0.395568 0.000410
v 0.390323 0.395568 -0.000410
v -0.357368 0.303546 -0.000619
v -0.357368 0.303546 0.000618
v -0.357368 0.393227 0.000618
v -0.357368 0.393227 -0.000619
v 0.392490 -0.393228 -0.000619
v 0.392490 -0.393228 0.000618
v -0.390322 -0.395569 0.000410
v -0.390322 -0.395569 -0.000410
v 0.167537 0.298140 -0.003730
v 0.167537 0.298141 0.003731
v -0.357368 0.303546 0.000618
v -0.357368 0.303546 -0.000619
v 0.392490 -0.303546 -0.000619
v 0.392490 -0.303546 0.000618
v 0.392490 -0.393228 0.000618
v 0.392490 -0.393228 -0.000619
vn 0.0000 0.0000 1.0000
vn -0.0000 -0.0000 -1.0000
vn 0.7770 -0.6295 0.0000
vn 0.0000 1.0000 0.0000
vn -0.7770 0.6295 0.0000
vn -1.0000 0.0000 0.0000
vn 0.0000 -1.0000 0.0000
vn 1.0000 0.0000 0.0000
vn 0.0003 -0.0000 -1.0000
vn -0.0054 0.0465 -0.9989
vn 0.0198 -0.0111 -0.9997
vn -0.0198 0.0111 -0.9997
vn 0.0051 -0.0457 -0.9989
vn -0.0003 -0.0000 -1.0000
vn 0.0003 0.0000 1.0000
vn -0.0054 0.0465 0.9989
vn 0.0198 -0.0111 0.9997
vn -0.0198 0.0111 0.9997
vn 0.0051 -0.0457 0.9989
vn -0.0003 0.0000 1.0000
vn 0.7793 -0.6267 0.0000
vn 0.0097 1.0000 0.0000
vn -0.7793 0.6267 -0.0001
vn -0.0031 1.0000 0.0000
vn 0.0030 -1.0000 0.0000
vn -0.0103 -0.9999 0.0001
usemtl full_lambertian_hidden
s 1
f 1//1 2//1 3//1
f 4//1 5//1 6//1
f 7//1 8//1 9//1
f 10//1 11//1 12//1
f 13//1 14//1 15//1
f 16//1 17//1 18//1
f 19//2 20//2 21//2
f 22//2 23//2 24//2
f 25//2 26//2 27//2
f 28//2 29//2 30//2
f 31//2 32//2 33//2
f 34//2 35//2 36//2
f 37//3 38//3 39//3 40//3
f 41//4 42//4 43//4 44//4
f 45//5 46//5 47//5 48//5
f 49//4 50//4 51//4 52//4
f 53//6 54//6 55//6 56//6
f 57//7 58//7 59//7 60//7
f 61//7 62//7 63//7 64//7
f 65//8 66//8 67//8 68//8
f 69//9 70//9 71//9
f 72//10 73//10 74//10
f 75//11 76//11 77//11
f 78//12 79//12 80//12
f 81//13 82//13 83//13
f 84//14 85//14 86//14
f 87//15 88//15 89//15
f 90//16 91//16 92//16
f 93//17 94//17 95//17
f 96//18 97//18 98//18
f 99//19 100//19 101//19
f 102//20 103//20 104//20
f 105//21 106//21 107//21 108//21
f 109//22 110//22 111//22 112//22
f 113//23 114//23 115//23 116//23
f 117//24 118//24 119//24 120//24
f 121//6 122//6 123//6 124//6
f 125//25 126//25 127//25 128//25
f 129//26 130//26 131//26 132//26
f 133//8 134//8 135//8 136//8
